<svg width="22" height="22" viewBox="0 0 22 22" fill="none" xmlns="http://www.w3.org/2000/svg">
<g clip-path="url(#clip0_16_69)">
<path d="M11 1.8335C7.4525 1.8335 4.58333 4.70266 4.58333 8.25016C4.58333 13.0627 11 20.1668 11 20.1668C11 20.1668 17.4167 13.0627 17.4167 8.25016C17.4167 4.70266 14.5475 1.8335 11 1.8335ZM6.41667 8.25016C6.41667 5.72016 8.47 3.66683 11 3.66683C13.53 3.66683 15.5833 5.72016 15.5833 8.25016C15.5833 10.8902 12.9433 14.841 11 17.3068C9.09333 14.8593 6.41667 10.8627 6.41667 8.25016Z" fill="white"/>
<path d="M11 10.5418C12.2657 10.5418 13.2917 9.51582 13.2917 8.25016C13.2917 6.98451 12.2657 5.9585 11 5.9585C9.73435 5.9585 8.70833 6.98451 8.70833 8.25016C8.70833 9.51582 9.73435 10.5418 11 10.5418Z" fill="white"/>
</g>
<defs>
<clipPath id="clip0_16_69">
<rect width="22" height="22" fill="white"/>
</clipPath>
</defs>
</svg>
